<?xml version="1.0" standalone="no"?>
<!DOCTYPE svg PUBLIC "-//W3C//DTD SVG 20010904//EN"
 "http://www.w3.org/TR/2001/REC-SVG-20010904/DTD/svg10.dtd">
<svg version="1.0" xmlns="http://www.w3.org/2000/svg"
 width="209.000000pt" height="198.000000pt" viewBox="0 0 209.000000 198.000000"
 preserveAspectRatio="xMidYMid meet">
<metadata>
Created by potrace 1.15, written by Peter Selinger 2001-2017
</metadata>
<g transform="translate(0.000000,198.000000) scale(0.100000,-0.100000)"
fill="#000000" stroke="none">
<path d="M510 1581 c-261 -175 -476 -325 -477 -332 -1 -8 80 -248 180 -534
l183 -520 599 0 600 0 182 520 c100 286 182 526 183 532 0 12 -931 642 -960
649 -8 2 -229 -140 -490 -315z m713 -30 c161 -42 291 -116 390 -221 195 -206
195 -474 0 -681 -102 -108 -238 -183 -409 -226 -95 -24 -341 -24 -438 0 -171
43 -309 120 -411 229 -200 216 -192 479 20 694 115 116 253 184 445 219 103
20 301 12 403 -14z"/>
<path d="M485 1287 c-3 -7 -4 -143 -3 -302 l3 -290 145 0 c130 1 150 3 198 24
106 47 152 134 152 285 0 74 -4 100 -24 142 -31 66 -92 117 -165 138 -73 20
-299 23 -306 3z m293 -114 c111 -82 104 -303 -10 -364 -11 -6 -53 -14 -94 -18
l-74 -7 0 209 0 210 76 -5 c54 -4 83 -11 102 -25z"/>
<path d="M1072 1282 c-9 -6 -12 -74 -10 -303 l3 -294 34 -3 c19 -2 44 -1 57 2
23 6 24 10 24 105 l0 98 69 5 c85 6 157 39 188 87 31 47 33 179 3 228 -35 59
-88 77 -230 81 -69 1 -131 -1 -138 -6z m227 -107 c33 -17 41 -33 41 -85 0 -60
-33 -92 -104 -100 l-56 -6 0 103 0 103 45 0 c26 0 59 -7 74 -15z"/>
</g>
</svg>
